<svg xmlns="http://www.w3.org/2000/svg" viewBox="0 0 161.14 101.14"><defs><style>.cls-1{fill:#fff;}.cls-2{fill:#142668;}</style></defs><g id="Шар_2" data-name="Шар 2"><g id="Шар_3" data-name="Шар 3"><path class="cls-1" d="M161.14,65.21A30.69,30.69,0,0,1,130.61,96a30.27,30.27,0,0,1-20.8-8.26,30.36,30.36,0,0,1-49,1.79,21.91,21.91,0,0,1-12.75,4.08,22.23,22.23,0,0,1-22-19.24,19.09,19.09,0,0,1-6.7,1.2,19.6,19.6,0,1,1,5.84-38.29A30.65,30.65,0,0,1,55.72,8.17,30.29,30.29,0,0,1,77.11,17a30.48,30.48,0,0,1,57.82,13.83,30.3,30.3,0,0,1-.24,3.83A30.73,30.73,0,0,1,161.14,65.21Z"/><path class="cls-2" d="M50.89,49.71a5.64,5.64,0,0,1-2.21-1.79A8.53,8.53,0,0,1,47.3,45a15.34,15.34,0,0,1-.49-4,17.15,17.15,0,0,1,.42-4,9.63,9.63,0,0,1,1.25-3,7,7,0,0,1,2.06-2.09,8.42,8.42,0,0,1,2.86-1.18c.49-.09,1-.16,1.6-.23l1.71-.17c.57-.06,1.1-.1,1.61-.12s.92-.06,1.27-.1v3.11c-.36,0-.79.1-1.27.13l-1.5.11-1.51.11a9.85,9.85,0,0,0-1.29.16,5.81,5.81,0,0,0-1.76.62A4.32,4.32,0,0,0,51,35.4a5.27,5.27,0,0,0-.84,1.6,8.69,8.69,0,0,0-.39,2.14,8,8,0,0,1,.89-1.21,5.43,5.43,0,0,1,1.1-.93,5,5,0,0,1,1.33-.6,5.85,5.85,0,0,1,1.51-.2h.22a6,6,0,0,1,2.46.5,5.84,5.84,0,0,1,1.91,1.39,6.27,6.27,0,0,1,1.26,2.15A8.11,8.11,0,0,1,60.85,43v.49a7.28,7.28,0,0,1-.51,2.73,6.36,6.36,0,0,1-3.51,3.59,6.75,6.75,0,0,1-2.64.51h-.25A7.16,7.16,0,0,1,50.89,49.71Zm3.16-2.06a3,3,0,0,0,1.35-.3,3.4,3.4,0,0,0,1.09-.84,3.81,3.81,0,0,0,.75-1.31,5,5,0,0,0,.27-1.68v-.46a5.18,5.18,0,0,0-.27-1.7,3.91,3.91,0,0,0-.72-1.31,3.42,3.42,0,0,0-1.08-.84,3.08,3.08,0,0,0-1.39-.31H54a3.15,3.15,0,0,0-1.4.31,3.2,3.2,0,0,0-1.12.88,4.43,4.43,0,0,0-.76,1.35,4.93,4.93,0,0,0-.28,1.7v.38a5.05,5.05,0,0,0,.27,1.7,3.89,3.89,0,0,0,.74,1.29,3.27,3.27,0,0,0,1.11.84,3.11,3.11,0,0,0,1.36.3Z"/><path class="cls-2" d="M66.85,49.83a6.55,6.55,0,0,1-2.19-1.41,6.33,6.33,0,0,1-1.42-2.19,7.73,7.73,0,0,1-.5-2.82v-.54A7.7,7.7,0,0,1,63.26,40a6.74,6.74,0,0,1,1.39-2.23,6.08,6.08,0,0,1,2.13-1.46,7.12,7.12,0,0,1,2.77-.53h.32a6.57,6.57,0,0,1,2.54.48,5.84,5.84,0,0,1,2,1.33,6,6,0,0,1,1.28,2,7.35,7.35,0,0,1,.45,2.64v1.83h-10a4.89,4.89,0,0,0,.37,1.4,2.87,2.87,0,0,0,.77,1.08,3.61,3.61,0,0,0,1.16.69,4.14,4.14,0,0,0,1.48.26h.27a4.4,4.4,0,0,0,2.2-.53A5.24,5.24,0,0,0,73.9,45.7l1.86,2a7.46,7.46,0,0,1-1.16,1.08,7.34,7.34,0,0,1-1.38.81,10.74,10.74,0,0,1-1.54.53,7,7,0,0,1-1.65.2h-.37A7.25,7.25,0,0,1,66.85,49.83Zm6.13-8v-.05a5,5,0,0,0-.3-1.41A3.32,3.32,0,0,0,72,39.32a2.66,2.66,0,0,0-1-.68,3.42,3.42,0,0,0-1.27-.23h-.24a3.22,3.22,0,0,0-2.27.92,3.39,3.39,0,0,0-.71,1.07,5.8,5.8,0,0,0-.42,1.44Z"/><path class="cls-2" d="M80.16,49.52A6.79,6.79,0,0,1,77.62,47l2.49-1.6A4.1,4.1,0,0,0,81.54,47a3.73,3.73,0,0,0,2,.51h.22a2.77,2.77,0,0,0,1.7-.46,1.39,1.39,0,0,0,.62-1.19V45.7a1.48,1.48,0,0,0-.55-1.24A2.57,2.57,0,0,0,83.91,44H82.05V41.82h1.7a1.9,1.9,0,0,0,1.32-.44,1.44,1.44,0,0,0,.49-1.16v-.16A1.31,1.31,0,0,0,85,39a2.33,2.33,0,0,0-1.43-.4h-.22a3.14,3.14,0,0,0-1.82.52,3.89,3.89,0,0,0-1.23,1.45l-2.4-1.86a7.26,7.26,0,0,1,2.43-2.11,7,7,0,0,1,3.37-.78H84a6.22,6.22,0,0,1,1.89.28,5.19,5.19,0,0,1,1.54.78,3.93,3.93,0,0,1,1,1.18,3,3,0,0,1,.38,1.48v.33a2.86,2.86,0,0,1-.46,1.58,4.45,4.45,0,0,1-1.27,1.25A4.35,4.35,0,0,1,88.76,44a3.25,3.25,0,0,1,.63,2v.25A3.43,3.43,0,0,1,89,47.88a4.39,4.39,0,0,1-1.15,1.29,5.68,5.68,0,0,1-1.74.87,7.66,7.66,0,0,1-2.18.31h-.29A7.11,7.11,0,0,1,80.16,49.52Z"/><path class="cls-2" d="M79.42,56.8h8.69v2.78H82.77V70.84H79.42Z"/><path class="cls-2" d="M90.44,56.8h3.67L97.83,65h.22l3.7-8.24h3.67v14h-3.19V62H102l-3.1,6.51H97L93.86,62h-.21v8.8H90.44Z"/><path class="cls-2" d="M112.39,70.6a6.45,6.45,0,0,1-2.19-1.43A6.56,6.56,0,0,1,108.77,67a7.39,7.39,0,0,1-.52-2.8v-.75a7.39,7.39,0,0,1,.52-2.8,6.41,6.41,0,0,1,3.62-3.6,7.24,7.24,0,0,1,2.8-.52h.25a7.24,7.24,0,0,1,2.8.52,6.45,6.45,0,0,1,2.19,1.43,6.29,6.29,0,0,1,1.42,2.17,7.59,7.59,0,0,1,.5,2.8v.75a7.59,7.59,0,0,1-.5,2.8,6.35,6.35,0,0,1-3.61,3.6,7.42,7.42,0,0,1-2.8.51h-.25A7.42,7.42,0,0,1,112.39,70.6Zm3-2.16a3.23,3.23,0,0,0,1.43-.32,3.36,3.36,0,0,0,1.09-.89,4.11,4.11,0,0,0,.69-1.37,6,6,0,0,0,.24-1.74v-.67a5.56,5.56,0,0,0-.25-1.73,4.19,4.19,0,0,0-.72-1.34,3.29,3.29,0,0,0-1.08-.86,3,3,0,0,0-1.4-.31h-.25a3.15,3.15,0,0,0-1.4.31,2.93,2.93,0,0,0-1.08.86,4.59,4.59,0,0,0-.7,1.34,5.28,5.28,0,0,0-.27,1.73v.67a6,6,0,0,0,.24,1.74,4.12,4.12,0,0,0,.7,1.37,3.51,3.51,0,0,0,1.1.89,3.11,3.11,0,0,0,1.41.32Z"/></g></g></svg>