<svg xmlns="http://www.w3.org/2000/svg" viewBox="0 0 200 120"><defs><style>.cls-1{fill:#fff;}.cls-2{fill:#142668;}</style></defs><g id="Шар_2" data-name="Шар 2"><g id="Шар_3" data-name="Шар 3"><path class="cls-1" d="M200,62.45c-.18,18-17,32.45-37.62,32.23a41.53,41.53,0,0,1-17.72-4.11c-2.34,15-16.24,27.29-34,28.94a39.63,39.63,0,0,1-28-7.73c-5.2,5.11-13,8.31-21.75,8.22-9.12-.1-17.19-3.78-22.27-9.39a33.09,33.09,0,0,1-10.81,1.66C12.34,112.1-.13,101.6,0,88.81S12.5,66,27.75,65.94a26,26,0,0,1-2.54-11.45c.17-17,17-30.61,37.6-30.39A43.21,43.21,0,0,1,82.1,28.77C86.32,12.06,101.17-.18,118.71,0c17.76.19,32.5,13,36.17,30.12a42,42,0,0,1,8.15-.7C183.64,29.64,200.18,44.42,200,62.45Z"/><path class="cls-2" d="M65,44.36h6.86a5.6,5.6,0,0,1,1.75.25,3.92,3.92,0,0,1,1.34.73,3.67,3.67,0,0,1,.88,1.12,3.3,3.3,0,0,1,.32,1.46v.43a2.85,2.85,0,0,1-.42,1.54,4.2,4.2,0,0,1-1.12,1.19,3.88,3.88,0,0,1,1.62,1.25,3,3,0,0,1,.6,1.83v.43a3.61,3.61,0,0,1-.34,1.56,3.37,3.37,0,0,1-1,1.19,4.66,4.66,0,0,1-1.47.77,6,6,0,0,1-1.91.29H65Zm5.86,5.8a2.4,2.4,0,0,0,1.51-.42,1.4,1.4,0,0,0,.54-1.17v-.19a1.45,1.45,0,0,0-.53-1.2,2.34,2.34,0,0,0-1.49-.42H68.13v3.4ZM71.29,56a2.63,2.63,0,0,0,1.65-.47,1.51,1.51,0,0,0,.59-1.23V54a1.47,1.47,0,0,0-.59-1.25,2.6,2.6,0,0,0-1.6-.45H68.13V56Z"/><path class="cls-2" d="M79.78,42a1.73,1.73,0,0,1-.53-1.29,1.77,1.77,0,0,1,.54-1.33,2,2,0,0,1,1.41-.51,2.13,2.13,0,0,1,1.48.51,1.72,1.72,0,0,1,.57,1.33A1.66,1.66,0,0,1,82.68,42a2.14,2.14,0,0,1-1.48.52A2,2,0,0,1,79.78,42Zm-.26,2.41h3.35v14H79.52Z"/><path class="cls-2" d="M85,55.75h1.3c.48-.52.83-1.72,1-3.59a73.92,73.92,0,0,0,.32-7.8h10.5V55.75h2v6.1H97V58.4H88.22v3.45H85Zm9.83,0V47h-4a49.64,49.64,0,0,1-.41,5.94,6.69,6.69,0,0,1-.86,2.84Z"/><path class="cls-2" d="M120.49,39.19a5.54,5.54,0,0,0-1.88-2.66,4.77,4.77,0,0,0-2.88-.86,5.24,5.24,0,0,0-2.58.62,5.84,5.84,0,0,0-2,1.76A8.12,8.12,0,0,0,110,40.87a17.19,17.19,0,0,0-.46,3.8.18.18,0,0,0,0,.14V45a7.51,7.51,0,0,1,1.5-1.48,9.59,9.59,0,0,1,1.82-1.08,8.33,8.33,0,0,1,2-.64,11.27,11.27,0,0,1,2.08-.2,10.37,10.37,0,0,1,3.52.6,8.68,8.68,0,0,1,2.94,1.74,8.17,8.17,0,0,1,2,2.8,9.33,9.33,0,0,1,.74,3.82,9.79,9.79,0,0,1-.76,3.9,9,9,0,0,1-2.14,3.06,9.75,9.75,0,0,1-3.32,2,12.76,12.76,0,0,1-4.3.7,11.21,11.21,0,0,1-4.66-.94,9.52,9.52,0,0,1-3.5-2.74,12.36,12.36,0,0,1-2.18-4.42,22.39,22.39,0,0,1-.74-6,22.5,22.5,0,0,1,.78-6.2,14.09,14.09,0,0,1,2.22-4.64,9.51,9.51,0,0,1,3.5-2.92,10.57,10.57,0,0,1,4.7-1,10.27,10.27,0,0,1,6,1.74A9.25,9.25,0,0,1,125.21,38Zm-8.72,15.08a5.28,5.28,0,0,0,3.76,1.36,6.39,6.39,0,0,0,2.22-.38,5.32,5.32,0,0,0,1.76-1.08,4.92,4.92,0,0,0,1.14-1.66,5.51,5.51,0,0,0,.4-2.16,5.1,5.1,0,0,0-.38-2,4.33,4.33,0,0,0-1-1.52,4.5,4.5,0,0,0-1.6-1,6.09,6.09,0,0,0-2.1-.34,8,8,0,0,0-1.9.24,7.39,7.39,0,0,0-1.82.7,4.85,4.85,0,0,0-1.44,1.18,6,6,0,0,0-1,1.64,2.05,2.05,0,0,0,0,.5c0,.17,0,.34,0,.5A7.28,7.28,0,0,0,111.77,54.27Z"/><path class="cls-2" d="M49.27,68.87h3.67l3.73,8.23h.21l3.7-8.23h3.67v14H61.07V74.1h-.25l-3.1,6.51H55.83L52.7,74.1h-.22v8.81H49.27Z"/><path class="cls-2" d="M68.29,66.46a1.73,1.73,0,0,1-.53-1.29,1.77,1.77,0,0,1,.54-1.33,2,2,0,0,1,1.41-.51,2.13,2.13,0,0,1,1.48.51,1.72,1.72,0,0,1,.57,1.33,1.66,1.66,0,0,1-.57,1.29,2.14,2.14,0,0,1-1.48.52A2,2,0,0,1,68.29,66.46ZM68,68.87h3.35v14H68Z"/><path class="cls-2" d="M78.28,82.62a6,6,0,0,1-2.15-1.42,6.63,6.63,0,0,1-1.4-2.2,7.36,7.36,0,0,1-.51-2.76v-.76a7.09,7.09,0,0,1,.52-2.75,6.85,6.85,0,0,1,1.42-2.18,6.18,6.18,0,0,1,2.12-1.4,7.12,7.12,0,0,1,2.69-.5h.21a6.78,6.78,0,0,1,3.32.82A6.63,6.63,0,0,1,87,71.89l-2.43,1.62a4.58,4.58,0,0,0-1.42-1.66,3.39,3.39,0,0,0-1.9-.53h-.19a3.24,3.24,0,0,0-1.41.31,3.2,3.2,0,0,0-1,.85,3.69,3.69,0,0,0-.66,1.33,6.4,6.4,0,0,0-.23,1.78v.59A5.28,5.28,0,0,0,78,77.91a4,4,0,0,0,.7,1.32,3.09,3.09,0,0,0,1.08.85,3.18,3.18,0,0,0,1.44.31h.25a3.06,3.06,0,0,0,1.79-.55,4.63,4.63,0,0,0,1.39-1.63L87,80a6.81,6.81,0,0,1-2.46,2.35,6.69,6.69,0,0,1-3.32.81H81A7.42,7.42,0,0,1,78.28,82.62Z"/><path class="cls-2" d="M94.74,77.75,91.9,82.91H88.36l3.33-5.67Zm-2.89,0a5,5,0,0,1-2.12-1.56,3.84,3.84,0,0,1-.83-2.47v-.48a4.73,4.73,0,0,1,.34-1.77,3.76,3.76,0,0,1,1-1.39,5,5,0,0,1,1.54-.91,5.53,5.53,0,0,1,1.94-.33h6.59v14H97.11V78.13H94.2Zm5.32-2.11V71.46H94.28a3,3,0,0,0-.87.12,1.78,1.78,0,0,0-.69.38,2,2,0,0,0-.44.6,1.92,1.92,0,0,0-.16.81v.3a1.83,1.83,0,0,0,.16.77,2.4,2.4,0,0,0,.44.65,1.88,1.88,0,0,0,.69.43,2.49,2.49,0,0,0,.87.15Z"/><path class="cls-2" d="M115.23,82.91H104.08v-14h3.35V80.26h5.69V68.87h3.35V80.26h2v6.1h-3.21Z"/><path class="cls-2" d="M121.18,66.46a1.72,1.72,0,0,1-.52-1.29,1.77,1.77,0,0,1,.54-1.33,2,2,0,0,1,1.4-.51,2.11,2.11,0,0,1,1.48.51,1.72,1.72,0,0,1,.57,1.33,1.66,1.66,0,0,1-.57,1.29,2.12,2.12,0,0,1-1.48.52A2,2,0,0,1,121.18,66.46Zm-.25,2.41h3.34v14h-3.34Z"/><path class="cls-2" d="M128.05,68.87h6.86a5.71,5.71,0,0,1,1.76.25,4,4,0,0,1,1.33.73,3.67,3.67,0,0,1,.88,1.12,3.16,3.16,0,0,1,.32,1.46v.43a2.84,2.84,0,0,1-.41,1.54,4.35,4.35,0,0,1-1.12,1.19,4,4,0,0,1,1.62,1.25,3,3,0,0,1,.59,1.83v.43a3.47,3.47,0,0,1-.34,1.56,3.17,3.17,0,0,1-1,1.19,4.66,4.66,0,0,1-1.47.77,6,6,0,0,1-1.9.29h-7.16Zm5.86,5.8a2.45,2.45,0,0,0,1.52-.42,1.42,1.42,0,0,0,.53-1.17v-.19a1.44,1.44,0,0,0-.52-1.2,2.35,2.35,0,0,0-1.5-.42h-2.73v3.4Zm.46,5.83A2.63,2.63,0,0,0,136,80a1.51,1.51,0,0,0,.59-1.23v-.27a1.47,1.47,0,0,0-.59-1.25,2.59,2.59,0,0,0-1.59-.45h-3.22V80.5Z"/></g></g></svg>