<svg width="990" height="606" viewBox="0 0 990 606" fill="none" xmlns="http://www.w3.org/2000/svg">
<ellipse cx="476.574" cy="223.245" rx="182.762" ry="184.114" fill="#ACDFFF"/>
<ellipse cx="888.413" cy="78.7625" rx="77.6863" ry="78.7625" fill="#FB332C"/>
<ellipse cx="725.073" cy="527.739" rx="77.6863" ry="78.2609" fill="#FF9434"/>
<ellipse cx="219.112" cy="459.532" rx="77.6863" ry="78.2609" fill="#61D523"/>
<ellipse cx="96.6863" cy="152.261" rx="77.6863" ry="78.2609" fill="#FF298D"/>
<path d="M361.635 316.565C366.667 323.623 385.162 319.746 385.404 312.757C385.404 312.757 385.46 312.112 385.355 311.1C384.973 307.421 382.741 298.839 369.684 300.185C364.817 300.68 362.087 302.296 360.745 304.364C357.423 309.242 361.635 316.565 361.635 316.565Z" fill="#474799"/>
<path opacity="0.3" d="M361.636 316.567C366.668 323.625 385.164 319.748 385.405 312.759C385.405 312.759 385.462 312.115 385.356 311.102C381.782 312.986 376.782 314.867 371.178 314.597C362.449 314.183 360.915 308.079 360.743 304.363C357.424 309.244 361.636 316.567 361.636 316.567Z" fill="#473E6D"/>
<path opacity="0.4" d="M377.276 305.709C379.592 304.654 382.22 307.619 379.624 308.951C376.866 310.371 374.518 306.966 377.276 305.709Z" fill="#585184"/>
<path opacity="0.6" d="M372.046 302.999C372.046 302.999 372.316 301.716 371.163 301.043C371.163 301.043 369.772 302.271 370.007 303.134C370.007 303.134 368.858 302.185 367.575 302.257C367.575 302.257 366.895 303.494 368.798 304.123C368.798 304.123 367.852 304.891 368.577 305.863C368.577 305.863 369.961 305.625 370.326 304.612C370.326 304.612 371.03 305.656 372.267 305.659C372.267 305.659 373.084 304.923 372.271 303.997C372.271 303.997 373.876 304.049 374.282 303.206C374.282 303.206 372.93 302.444 372.046 302.999Z" fill="#473E6D"/>
<path d="M484.674 116.748C484.674 116.748 483.325 114.853 481.664 112.658C479.947 110.386 477.918 107.795 476.66 106.581C476.66 106.581 474.204 100.371 483.805 95.332C483.805 95.332 495.31 107.032 484.674 116.748Z" fill="#91BC1D"/>
<path d="M483.805 95.332C483.805 95.332 483.717 105.62 481.664 112.658C479.946 110.386 477.918 107.795 476.66 106.581C476.66 106.581 474.207 100.371 483.805 95.332Z" fill="#82A013"/>
<path d="M550.274 303.275L544.5 312.678C526.761 319.834 508.526 322.595 491.67 322.946C451.653 323.771 419.326 310.989 419.326 310.989L413.898 303.275C444.672 312.494 470.722 315.194 491.544 314.823C529.649 314.182 550.274 303.275 550.274 303.275Z" fill="#94BBC2"/>
<path opacity="0.5" d="M550.289 303.275L544.514 312.678C526.776 319.834 508.54 322.595 491.685 322.946C492.491 319.854 492.137 316.966 491.559 314.82C529.663 314.182 550.289 303.275 550.289 303.275Z" fill="#96BBC2"/>
<path d="M620.201 192.754C620.201 193.208 620.352 288.833 527.179 311C512.942 314.36 496.535 316.031 477.62 315.389C467.398 315.039 457.901 314.11 449.109 312.689C423.89 308.671 404.371 300.606 389.272 290.461C336.068 254.894 337.701 193.904 337.701 193.904C338.402 205.369 348.981 215.778 366.715 224.107C377.316 229.08 390.477 233.305 405.626 236.541C425.898 240.893 449.712 243.447 475.71 243.717C478.45 243.758 481.089 243.737 483.724 243.717C484.001 243.717 484.302 243.697 484.603 243.697C509.848 243.389 530.27 240.605 547.178 236.397C578.326 228.666 597.515 216.149 612.766 205.573C617.363 202.381 619.876 197.928 620.201 192.754Z" fill="#B1D2DA"/>
<path opacity="0.3" d="M449.101 312.69C423.881 308.672 404.363 300.607 389.263 290.462C373.06 268.235 368.262 239.617 366.703 224.111C377.303 229.084 390.465 233.309 405.614 236.545C407.12 264.876 433.749 296.609 449.101 312.69Z" fill="#C9E8F0"/>
<path opacity="0.6" d="M620.198 192.754C620.198 193.208 620.349 288.833 527.176 311C542.703 288.319 546.522 259.784 547.174 236.4C578.323 228.669 597.512 216.152 612.762 205.576C617.36 202.381 619.872 197.928 620.198 192.754Z" fill="#B1D2DA"/>
<path opacity="0.6" d="M426.414 152.338C426.414 152.338 425.667 151.239 426.47 151.041C426.47 151.041 427.882 151.375 428.043 151.967C428.043 151.967 428.071 151.326 429.385 151.349C429.385 151.349 430.352 151.682 429.715 152.609C429.715 152.609 430.657 153.29 430.156 153.819C429.655 154.349 428.499 153.561 428.499 153.561C428.499 153.561 428.607 154.636 427.479 154.59C427.479 154.59 426.75 154.306 426.589 153.512C426.589 153.512 425.243 153.699 425.082 152.816C425.079 152.816 426.011 152.47 426.414 152.338Z" fill="#473E6D"/>
<path d="M487.527 132.557C382.096 129.247 336.377 172.358 337.712 194.882C339.334 222.338 397.795 243.904 475.721 244.703C478.423 244.749 481.082 244.741 483.717 244.697C484.015 244.695 484.299 244.686 484.597 244.683C556.303 243.789 591.394 225.717 612.773 206.553C616.835 202.915 619.887 198.908 620.206 193.737C621.572 171.308 581.372 135.502 487.527 132.557Z" fill="#E9FAFF"/>
<path opacity="0.8" d="M608.062 187.54C608.062 192.613 605.423 199.211 598.593 205.933L598.565 205.956C583.518 220.737 548.126 236.096 475.754 236.944C400.67 237.83 367.965 219.132 355.378 204.529C350.304 198.656 348.496 193.439 348.496 190.427C348.496 180.24 365.779 163.006 396.7 151.11C416.695 143.419 442.443 137.977 472.916 138.118C500.546 138.242 523.208 140.655 541.521 144.489C589.851 154.55 608.062 174.367 608.062 187.54Z" fill="#C9E8F0"/>
<path d="M602.348 191.742C602.348 196.298 601.22 201.081 598.606 205.931L598.578 205.954C583.531 220.737 548.135 236.088 475.763 236.945C457.794 237.152 442.26 236.249 428.839 234.546C386.172 229.113 364.95 215.632 355.38 204.524C352.948 193.738 353.6 180.919 364.726 171.376C365.381 170.818 366.005 170.303 366.646 169.823C376.717 162.017 385.534 161.721 392.069 163.625C398.566 165.508 402.82 169.573 403.847 170.645C403.889 170.712 403.945 170.769 404.015 170.818C403.36 169.823 397.255 160.717 396.716 151.104C396.327 145.295 398.019 139.312 404.099 134.814C408.812 131.333 413.112 129.757 416.963 129.242C426.81 127.919 433.678 133.522 436.656 132.199C436.572 131.891 436.506 131.572 436.432 131.25V131.239C432.679 112.322 468.502 90.8164 468.502 90.8164C468.502 90.8164 468.502 90.8279 468.488 90.8509C466.456 97.6992 480.757 110.006 488.641 114.263C490.849 115.463 492.895 116.947 494.647 118.635C497.706 118.785 500.709 119.15 503.607 119.768C517.33 122.69 536.526 133.499 541.53 144.481C547.077 156.753 548.941 167.824 548.941 167.824C548.941 167.824 555.154 153.098 570.467 155.324C570.481 155.324 570.481 155.324 570.481 155.324C572.833 155.666 575.401 156.42 578.201 157.674C585.584 161.019 594.012 168.175 598.7 177.33C600.971 181.742 602.362 186.605 602.348 191.742Z" fill="#FFFEEC"/>
<path d="M475.722 186.538C473.683 189.426 477.359 194.712 488.05 194.879C498.745 195.043 501.941 190.68 500.094 188.261C498.279 185.885 477.814 183.581 475.722 186.538Z" fill="#F7EFCD"/>
<path d="M497.001 189.616C493.556 195.296 478.989 193.087 478.362 187.689C478.362 187.689 478.278 187.191 478.295 186.403C478.355 183.538 479.536 176.799 489.73 177.282C493.528 177.458 495.743 178.591 496.913 180.133C499.797 183.768 497.001 189.616 497.001 189.616Z" fill="#474799"/>
<path opacity="0.3" d="M497.001 189.619C493.556 195.299 478.989 193.09 478.362 187.691C478.362 187.691 478.278 187.194 478.295 186.406C481.179 187.712 485.171 188.951 489.491 188.503C496.223 187.809 497.022 183.018 496.913 180.133C499.797 183.771 497.001 189.619 497.001 189.619Z" fill="#473E6D"/>
<path opacity="0.4" d="M484.203 181.886C482.346 181.167 480.499 183.574 482.591 184.498C484.813 185.478 486.418 182.74 484.203 181.886Z" fill="#585184"/>
<path opacity="0.6" d="M488.08 179.563C488.08 179.563 487.789 178.582 488.641 178.01C488.641 178.01 489.797 178.901 489.664 179.58C489.664 179.58 490.495 178.795 491.49 178.795C491.49 178.795 492.1 179.721 490.663 180.293C490.663 180.293 491.448 180.846 490.947 181.631C490.947 181.631 489.857 181.507 489.51 180.739C489.51 180.739 489.033 181.576 488.077 181.631C488.077 181.631 487.397 181.096 487.968 180.348C487.968 180.348 486.731 180.455 486.363 179.822C486.363 179.822 487.365 179.169 488.08 179.563Z" fill="#473E6D"/>
<path d="M480.739 147.971C477.193 158.912 480.329 164.566 484.103 167.474C487.25 165.832 491.083 165.271 494.486 165.783C498.803 154.678 480.739 147.971 480.739 147.971Z" fill="#88B22D"/>
<path d="M484.102 167.474C485.507 166.744 487.049 166.232 488.625 165.93L480.738 147.971C477.195 158.912 480.327 164.566 484.102 167.474Z" fill="#78991D"/>
<path d="M412.224 175.396C408.979 176.941 398.715 189.182 422.382 205.924C446.05 222.667 529.919 235.791 568.9 210.544C568.9 210.544 546.644 220.383 514.199 220.004C481.747 219.624 437.405 211.755 422.382 197.934C407.367 184.114 412.224 175.396 412.224 175.396Z" fill="#F7EFCD"/>
<path d="M387.186 177.252C381.625 183.856 373.278 214.47 413.608 227.701C413.608 227.701 395.61 217.338 389.04 205.163C382.47 192.988 387.186 177.252 387.186 177.252Z" fill="#F7EFCD"/>
<path d="M420.129 147.971C420.574 147.58 447.451 147.16 451.046 159.232C451.046 159.232 454.961 150.862 441.876 146.956C428.791 143.05 420.129 147.971 420.129 147.971Z" fill="#F7EFCD"/>
<path d="M503.604 174.254C506.096 171.208 499.354 163.318 488.645 165.933C477.936 168.547 460.611 182.434 475.185 194.327C489.759 206.217 513.167 189.828 513.398 188.557C513.398 188.557 493.856 198.716 483.925 194.522C473.994 190.329 468.436 178.139 487.884 171.021C503.201 165.409 503.604 174.254 503.604 174.254Z" fill="#F7EFCD"/>
<path d="M415.895 164.905C415.811 167.738 425.314 170.071 435.992 166.202C446.669 162.337 440.845 159.15 430.725 159.846C420.601 160.536 415.958 162.745 415.895 164.905Z" fill="#F7EFCD"/>
<path d="M437.716 160.582C436.122 167.073 420.714 168.086 418.296 162.782C418.296 162.782 418.044 162.302 417.802 161.502C416.915 158.6 415.885 151.545 426.32 149.764C430.207 149.094 432.817 149.75 434.503 151.042C438.606 154.064 437.716 160.582 437.716 160.582Z" fill="#473877"/>
<path opacity="0.3" d="M437.719 160.581C436.125 167.073 420.717 168.085 418.299 162.782C418.299 162.782 418.046 162.301 417.805 161.502C421.144 162.178 425.577 162.54 429.782 161.125C436.338 158.93 435.56 153.926 434.502 151.041C438.609 154.064 437.719 160.581 437.719 160.581Z" fill="#473E6D"/>
<path opacity="0.4" d="M422.283 155.633C420.17 155.325 419.105 158.158 421.52 158.624C424.085 159.119 424.796 156.004 422.283 155.633Z" fill="#585184"/>
<path opacity="0.6" d="M426.414 152.338C426.414 152.338 425.667 151.239 426.47 151.041C426.47 151.041 427.882 151.375 428.043 151.967C428.043 151.967 428.071 151.326 429.385 151.349C429.385 151.349 430.352 151.682 429.715 152.609C429.715 152.609 430.657 153.29 430.156 153.819C429.655 154.349 428.499 153.561 428.499 153.561C428.499 153.561 428.607 154.636 427.479 154.59C427.479 154.59 426.75 154.306 426.589 153.512C426.589 153.512 425.243 153.699 425.082 152.816C425.079 152.816 426.011 152.47 426.414 152.338Z" fill="#473E6D"/>
<path d="M496.117 154.806C495.402 157.829 500.514 161.545 511.188 161.031C521.865 160.513 524.847 156.561 522.181 154.806C519.507 153.052 497.375 149.5 496.117 154.806Z" fill="#F7EFCD"/>
<path d="M519.736 155.632C516.267 161.609 501.017 159.527 500.239 153.898C500.239 153.898 500.141 153.383 500.141 152.561C500.141 149.569 501.223 142.52 511.873 142.868C515.843 142.992 518.18 144.148 519.435 145.735C522.522 149.486 519.736 155.632 519.736 155.632Z" fill="#4A4AA8"/>
<path opacity="0.3" d="M519.736 155.631C516.267 161.608 501.017 159.526 500.239 153.897C500.239 153.897 500.141 153.382 500.141 152.56C503.179 153.877 507.373 155.114 511.873 154.582C518.881 153.756 519.61 148.746 519.435 145.734C522.522 149.485 519.736 155.631 519.736 155.631Z" fill="#473E6D"/>
<path opacity="0.4" d="M506.207 147.753C504.252 147.034 502.381 149.574 504.585 150.506C506.925 151.49 508.537 148.611 506.207 147.753Z" fill="#585184"/>
<path opacity="0.6" d="M509.233 146.196C509.233 146.196 507.733 145.926 508.09 145.299C508.09 145.299 509.331 144.652 509.979 144.948C509.979 144.948 509.411 144.505 510.305 143.714C510.305 143.714 511.255 143.34 511.672 144.347C511.672 144.347 512.916 144.22 513.066 144.879C513.217 145.538 511.731 145.725 511.731 145.725C511.731 145.725 512.786 146.372 511.994 147.033C511.994 147.033 511.251 147.292 510.421 146.866C510.421 146.866 509.699 147.818 508.788 147.332C508.788 147.332 509.089 146.533 509.233 146.196Z" fill="#473E6D"/>
<path d="M468.498 145.427C459.181 146.785 442.213 142.47 436.428 131.262V131.25C432.675 112.333 468.498 90.8281 468.498 90.8281C468.498 90.8281 468.498 90.8396 468.484 90.8626C468.025 91.8894 457.222 116.536 468.498 124.149C480.009 131.92 479.578 143.793 468.498 145.427Z" fill="#F7EFCD"/>
<path d="M447.67 128.688C447.6 128.734 447.516 128.78 447.449 128.826C436.022 135.936 435.346 142.039 436.884 145.979C439.863 146.802 443.402 146.974 445.988 148.482C457.727 141.705 447.67 128.688 447.67 128.688Z" fill="#88B22D"/>
<path d="M436.884 145.982C438.346 146.384 439.94 146.635 441.496 146.957C443.616 140.882 446.363 132.245 447.449 128.828C436.022 135.938 435.346 142.041 436.884 145.982Z" fill="#78991D"/>
<path d="M566.29 154.359C564.94 154.474 564.148 154.589 564.148 154.589C564.678 154.371 565.413 154.302 566.29 154.359Z" fill="#F7EFCD"/>
<path d="M578.416 208.571C558.6 218.445 523.109 211.824 523.109 211.824C566.905 213.251 577.372 203.55 586.069 192.715C594.759 181.883 581.198 177.258 581.198 177.258C590.975 167.68 579.061 158.333 570.489 155.33C572.841 155.672 575.409 156.426 578.209 157.68C585.593 161.025 594.02 168.181 598.709 177.336C600.17 189.873 594.23 200.694 578.416 208.571Z" fill="#F7EFCD"/>
<path d="M428.839 234.544C386.172 229.111 364.95 215.63 355.38 204.523C352.948 193.737 353.6 180.918 364.726 171.374C365.381 170.816 366.005 170.301 366.646 169.821C376.717 162.015 385.534 161.719 392.069 163.623C385.394 164.261 373.518 168.11 375.365 178.004C375.365 178.004 359.582 189.842 369.803 205.823C376.798 216.749 401.208 228.13 428.839 234.544Z" fill="#F7EFCD"/>
<path d="M421.807 188.386C420.458 187.198 412.139 179.812 404.02 170.818C403.365 169.823 397.26 160.716 396.721 151.104C396.332 145.294 398.024 139.312 404.104 134.813C408.817 131.333 413.117 129.757 416.968 129.242C410.832 132.369 405.502 135.34 413.614 142.849C413.614 142.849 399.601 141.429 404.342 159.224C408.751 175.687 420.43 187.062 421.807 188.386Z" fill="#F7EFCD"/>
<path d="M540.516 159.742C541.56 164.732 546.428 178.363 525.914 188.386C525.914 188.386 548.625 181.573 548.86 169.521C549.024 161.077 540.516 159.742 540.516 159.742Z" fill="#F7EFCD"/>
<path d="M469.589 107.092C468.541 110.23 468.723 117.935 476.976 122.502C485.228 127.067 487.52 132.555 487.52 132.555C487.52 132.555 491.368 124.547 481.17 118.246C470.977 111.944 469.589 107.092 469.589 107.092Z" fill="#FFFEF8"/>
<path d="M407.082 313.596C407.009 314.873 406.613 316.202 405.831 317.53C402.947 322.382 396.121 324.747 390.048 323.199C387.536 322.555 385.139 321.258 383.215 319.176C379.648 315.33 380.303 310.872 383.124 307.656C383.674 307.038 384.302 306.451 385.006 305.933C387.347 304.199 390.444 303.146 393.686 303.279C401.763 303.633 407.366 308.22 407.082 313.596Z" fill="#473877"/>
<path opacity="0.3" d="M407.082 313.594C407.009 314.871 406.613 316.199 405.831 317.528C401.756 324.388 389.814 326.275 383.215 319.173C379.648 315.328 380.303 310.87 383.124 307.654C385.241 311.543 389.106 315.886 394.604 316.237C399.257 316.53 403.75 315.086 407.082 313.594Z" fill="#473877"/>
<path opacity="0.3" d="M390.048 323.199C387.536 322.555 385.139 321.258 383.215 319.176C379.648 315.33 380.303 310.872 383.124 307.656C383.674 307.038 384.302 306.451 385.006 305.934C384.032 311.266 384.484 318.477 390.048 323.199Z" fill="#473877"/>
<path opacity="0.6" d="M393.274 306.767C393.274 306.767 392.552 305.461 393.558 304.48C393.558 304.48 395.457 305.473 395.496 306.448C395.496 306.448 396.403 305.174 397.794 304.955C397.794 304.955 398.94 306.117 397.122 307.227C397.122 307.227 398.394 307.825 397.949 309.031C397.949 309.031 396.393 309.091 395.66 308.099C395.66 308.099 395.264 309.373 393.947 309.658C393.947 309.658 392.826 309.059 393.379 307.889C393.379 307.889 391.687 308.309 390.965 307.506C390.965 307.506 392.146 306.373 393.274 306.767Z" fill="#473E6D"/>
<path opacity="0.5" d="M404.165 309.512C404.344 310.288 403.723 311.036 402.777 311.186C401.831 311.332 400.92 310.823 400.738 310.047C400.559 309.27 401.179 308.522 402.122 308.376C403.075 308.226 403.986 308.735 404.165 309.512Z" fill="#473877"/>
<path d="M548.378 213.308C549.3 214.068 550.07 215.025 550.628 216.176C552.65 220.392 550.558 225.198 545.946 227.402C544.036 228.313 541.699 228.791 539.036 228.587C534.119 228.216 531.127 225.354 530.307 222.095C530.149 221.465 530.069 220.815 530.079 220.165C530.1 217.994 531.064 215.822 533.005 214.252C537.855 210.354 544.485 210.113 548.378 213.308Z" fill="#544691"/>
<path opacity="0.2" d="M548.38 213.305C549.301 214.064 550.072 215.022 550.629 216.172C553.489 222.132 548.134 229.268 539.038 228.583C534.121 228.212 531.129 225.35 530.309 222.091C534.44 223.225 539.903 223.728 543.288 221.137C546.151 218.942 547.612 215.841 548.38 213.305Z" fill="#473877"/>
<path opacity="0.3" d="M545.946 227.401C544.036 228.312 541.699 228.79 539.036 228.586C534.119 228.215 531.127 225.353 530.307 222.094C530.149 221.464 530.069 220.814 530.079 220.164C533.541 223.685 539.232 227.55 545.946 227.401Z" fill="#473877"/>
<path opacity="0.6" d="M535.391 216.443C535.391 216.443 533.996 216.069 533.828 215.002C533.828 215.002 535.65 214.602 536.407 215.134C536.407 215.134 535.959 213.949 536.589 213.121C536.589 213.121 538.114 213.199 537.917 214.752C537.917 214.752 539.091 214.45 539.743 215.356C539.743 215.356 538.906 216.178 537.742 215.989C537.742 215.989 538.478 216.912 537.946 217.74C537.946 217.74 536.856 217.97 536.292 217.024C536.292 217.024 535.643 218.12 534.631 218.034C534.631 218.034 534.452 216.794 535.391 216.443Z" fill="#473E6D"/>
<path opacity="0.5" d="M543.643 212.474C544.33 212.825 544.544 213.561 544.12 214.128C543.692 214.691 542.788 214.867 542.101 214.516C541.418 214.168 541.204 213.426 541.628 212.862C542.056 212.298 542.956 212.123 543.643 212.474Z" fill="#473877"/>
<path d="M398.026 166.194C396.593 165.202 394.424 164.457 392.297 163.911C390.822 163.545 389.378 163.261 388.166 163.056C386.484 162.78 385.299 162.654 385.299 162.654C385.299 162.654 357.595 137.826 343.34 123.558C329.726 109.93 312.314 89.7939 320.156 84.5304C320.531 84.2802 320.948 84.0731 321.435 83.889C324.302 82.8277 327.221 83.17 330.266 84.6426C337.498 88.1142 345.495 97.9076 355.506 110.189C367.754 125.214 398.026 166.194 398.026 166.194Z" fill="url(#paint0_linear_793_428)"/>
<path opacity="0.4" d="M388.165 163.055C386.483 162.779 385.299 162.653 385.299 162.653C385.299 162.653 357.595 137.825 343.34 123.556C329.726 109.929 312.314 89.7927 320.156 84.5293C319.893 88.694 321.603 96.9372 333.255 109.48C347.443 124.736 378.014 153.532 388.165 163.055Z" fill="#E8B254"/>
<path opacity="0.5" d="M330.014 87.7954C333.231 86.3775 354.655 115.899 364.39 127.697C364.39 127.697 349.112 113.966 339.749 103.997C329.005 92.5527 326.979 89.1329 330.014 87.7954Z" fill="url(#paint1_linear_793_428)"/>
<path opacity="0.3" d="M392.297 163.911C390.822 163.545 389.378 163.261 388.165 163.056C386.483 162.78 385.299 162.654 385.299 162.654C385.299 162.654 357.595 137.826 343.34 123.558C329.726 109.93 312.314 89.7939 320.156 84.5304C320.531 84.2802 320.948 84.0731 321.435 83.889C324.302 82.8277 327.221 83.17 330.266 84.6426C326.064 85.2696 321.877 88.0336 326.064 96.5357C331.489 107.517 376.395 149.889 385.169 157.137C388.246 159.677 390.573 161.981 392.297 163.911Z" fill="url(#paint2_linear_793_428)"/>
<path d="M846.222 70.1641V52.7095H853.211C854.495 52.7095 855.566 52.8999 856.424 53.2805C857.282 53.6612 857.927 54.1896 858.358 54.8658C858.79 55.5362 859.006 56.3089 859.006 57.1839C859.006 57.8658 858.87 58.4652 858.597 58.9822C858.324 59.4936 857.949 59.9141 857.472 60.2436C857 60.5675 856.461 60.7976 855.853 60.9339V61.1044C856.518 61.1328 857.14 61.3203 857.719 61.6669C858.304 62.0135 858.779 62.4993 859.143 63.1243C859.506 63.7436 859.688 64.4822 859.688 65.3402C859.688 66.2663 859.458 67.093 858.998 67.8203C858.543 68.5419 857.87 69.1129 856.978 69.5334C856.086 69.9538 854.986 70.1641 853.679 70.1641H846.222ZM849.912 67.147H852.921C853.949 67.147 854.699 66.951 855.171 66.5589C855.643 66.1612 855.878 65.6328 855.878 64.9737C855.878 64.4908 855.762 64.0646 855.529 63.6953C855.296 63.326 854.964 63.0362 854.532 62.826C854.106 62.6158 853.597 62.5107 853.006 62.5107H849.912V67.147ZM849.912 60.0135H852.648C853.154 60.0135 853.603 59.9254 853.995 59.7493C854.393 59.5675 854.705 59.3118 854.932 58.9822C855.165 58.6527 855.282 58.2578 855.282 57.7976C855.282 57.1669 855.057 56.6584 854.608 56.272C854.165 55.8857 853.535 55.6925 852.716 55.6925H849.912V60.0135ZM862.021 70.1641V57.0732H865.652V70.1641H862.021ZM863.845 55.3857C863.305 55.3857 862.842 55.2067 862.456 54.8487C862.075 54.4851 861.885 54.0504 861.885 53.5447C861.885 53.0447 862.075 52.6158 862.456 52.2578C862.842 51.8942 863.305 51.7124 863.845 51.7124C864.385 51.7124 864.845 51.8942 865.226 52.2578C865.612 52.6158 865.805 53.0447 865.805 53.5447C865.805 54.0504 865.612 54.4851 865.226 54.8487C864.845 55.2067 864.385 55.3857 863.845 55.3857ZM867.878 59.9283V57.0732H879.742V59.9283H875.523V70.1641H872.063V59.9283H867.878ZM885.207 70.4112C884.372 70.4112 883.628 70.2663 882.974 69.9766C882.321 69.6811 881.804 69.2464 881.423 68.6726C881.048 68.093 880.861 67.3714 880.861 66.5078C880.861 65.7805 880.994 65.1697 881.261 64.6754C881.528 64.1811 881.892 63.7834 882.352 63.4822C882.812 63.1811 883.335 62.9538 883.92 62.8004C884.511 62.647 885.13 62.5391 885.778 62.4766C886.54 62.397 887.153 62.3232 887.619 62.255C888.085 62.1811 888.423 62.0732 888.633 61.9311C888.844 61.7891 888.949 61.5788 888.949 61.3004V61.2493C888.949 60.7095 888.778 60.2919 888.437 59.9964C888.102 59.701 887.625 59.5533 887.005 59.5533C886.352 59.5533 885.832 59.6982 885.446 59.9879C885.059 60.272 884.804 60.63 884.679 61.0618L881.321 60.7891C881.491 59.9936 881.826 59.3061 882.326 58.7266C882.826 58.1413 883.471 57.6925 884.261 57.38C885.057 57.0618 885.977 56.9027 887.023 56.9027C887.75 56.9027 888.446 56.9879 889.111 57.1584C889.781 57.3288 890.375 57.593 890.892 57.951C891.415 58.3089 891.826 58.7692 892.128 59.3317C892.429 59.8885 892.579 60.5561 892.579 61.3345V70.1641H889.136V68.3487H889.034C888.824 68.7578 888.542 69.1186 888.19 69.4311C887.838 69.7379 887.415 69.9794 886.92 70.1555C886.426 70.326 885.855 70.4112 885.207 70.4112ZM886.247 67.9055C886.781 67.9055 887.253 67.8004 887.662 67.5902C888.071 67.3743 888.392 67.0845 888.625 66.7209C888.858 66.3572 888.974 65.9453 888.974 65.4851V64.0959C888.861 64.1697 888.704 64.2379 888.505 64.3004C888.312 64.3572 888.094 64.4112 887.849 64.4624C887.605 64.5078 887.361 64.5504 887.116 64.5902C886.872 64.6243 886.65 64.6555 886.451 64.6839C886.025 64.7464 885.653 64.8459 885.335 64.9822C885.017 65.1186 884.77 65.3033 884.594 65.5362C884.417 65.7635 884.329 66.0476 884.329 66.3885C884.329 66.8828 884.508 67.2607 884.866 67.522C885.23 67.7777 885.69 67.9055 886.247 67.9055ZM903.135 66.1499L906.68 57.0732H909.442L904.336 70.1641H901.925L896.939 57.0732H899.692L903.135 66.1499ZM898.865 57.0732V70.1641H895.396V57.0732H898.865ZM907.584 70.1641V57.0732H911.01V70.1641H907.584ZM913.818 70.1641V57.0732H917.449V70.1641H913.818ZM915.642 55.3857C915.102 55.3857 914.639 55.2067 914.253 54.8487C913.872 54.4851 913.682 54.0504 913.682 53.5447C913.682 53.0447 913.872 52.6158 914.253 52.2578C914.639 51.8942 915.102 51.7124 915.642 51.7124C916.182 51.7124 916.642 51.8942 917.023 52.2578C917.409 52.6158 917.602 53.0447 917.602 53.5447C917.602 54.0504 917.409 54.4851 917.023 54.8487C916.642 55.2067 916.182 55.3857 915.642 55.3857ZM929.468 62.1697V65.0249H922.633V62.1697H929.468ZM923.826 57.0732V70.1641H920.357V57.0732H923.826ZM931.743 57.0732V70.1641H928.3V57.0732H931.743ZM881.49 110.164H874.899L884.942 81.0732H892.868L902.896 110.164H896.305L889.018 87.7209H888.791L881.49 110.164ZM881.078 98.7294H896.646V103.531H881.078V98.7294Z" fill="white"/>
<path d="M682.886 516.652V499.198H689.875C691.159 499.198 692.23 499.388 693.088 499.769C693.946 500.15 694.591 500.678 695.023 501.354C695.454 502.025 695.67 502.797 695.67 503.672C695.67 504.354 695.534 504.953 695.261 505.471C694.988 505.982 694.613 506.402 694.136 506.732C693.665 507.056 693.125 507.286 692.517 507.422V507.593C693.182 507.621 693.804 507.809 694.383 508.155C694.969 508.502 695.443 508.988 695.807 509.613C696.17 510.232 696.352 510.971 696.352 511.828C696.352 512.755 696.122 513.581 695.662 514.309C695.207 515.03 694.534 515.601 693.642 516.022C692.75 516.442 691.65 516.652 690.344 516.652H682.886ZM686.576 513.635H689.585C690.613 513.635 691.363 513.439 691.835 513.047C692.307 512.65 692.542 512.121 692.542 511.462C692.542 510.979 692.426 510.553 692.193 510.184C691.96 509.814 691.628 509.525 691.196 509.314C690.77 509.104 690.261 508.999 689.67 508.999H686.576V513.635ZM686.576 506.502H689.312C689.818 506.502 690.267 506.414 690.659 506.238C691.057 506.056 691.369 505.8 691.596 505.471C691.829 505.141 691.946 504.746 691.946 504.286C691.946 503.655 691.721 503.147 691.273 502.76C690.829 502.374 690.199 502.181 689.38 502.181H686.576V506.502ZM698.685 516.652V503.561H702.316V516.652H698.685ZM700.509 501.874C699.969 501.874 699.506 501.695 699.12 501.337C698.739 500.973 698.549 500.539 698.549 500.033C698.549 499.533 698.739 499.104 699.12 498.746C699.506 498.382 699.969 498.201 700.509 498.201C701.049 498.201 701.509 498.382 701.89 498.746C702.276 499.104 702.469 499.533 702.469 500.033C702.469 500.539 702.276 500.973 701.89 501.337C701.509 501.695 701.049 501.874 700.509 501.874ZM704.542 506.417V503.561H716.406V506.417H712.187V516.652H708.727V506.417H704.542ZM721.871 516.9C721.036 516.9 720.292 516.755 719.638 516.465C718.985 516.169 718.468 515.735 718.087 515.161C717.712 514.581 717.525 513.86 717.525 512.996C717.525 512.269 717.658 511.658 717.925 511.164C718.192 510.669 718.556 510.272 719.016 509.971C719.476 509.669 719.999 509.442 720.584 509.289C721.175 509.135 721.795 509.027 722.442 508.965C723.204 508.885 723.817 508.811 724.283 508.743C724.749 508.669 725.087 508.561 725.297 508.419C725.508 508.277 725.613 508.067 725.613 507.789V507.738C725.613 507.198 725.442 506.78 725.101 506.485C724.766 506.189 724.289 506.042 723.67 506.042C723.016 506.042 722.496 506.186 722.11 506.476C721.724 506.76 721.468 507.118 721.343 507.55L717.985 507.277C718.155 506.482 718.491 505.794 718.991 505.215C719.491 504.63 720.135 504.181 720.925 503.868C721.721 503.55 722.641 503.391 723.687 503.391C724.414 503.391 725.11 503.476 725.775 503.647C726.445 503.817 727.039 504.081 727.556 504.439C728.079 504.797 728.491 505.257 728.792 505.82C729.093 506.377 729.243 507.044 729.243 507.823V516.652H725.8V514.837H725.698C725.488 515.246 725.206 515.607 724.854 515.919C724.502 516.226 724.079 516.468 723.584 516.644C723.09 516.814 722.519 516.9 721.871 516.9ZM722.911 514.394C723.445 514.394 723.917 514.289 724.326 514.078C724.735 513.863 725.056 513.573 725.289 513.209C725.522 512.846 725.638 512.434 725.638 511.973V510.584C725.525 510.658 725.368 510.726 725.17 510.789C724.976 510.846 724.758 510.9 724.513 510.951C724.269 510.996 724.025 511.039 723.78 511.078C723.536 511.113 723.314 511.144 723.116 511.172C722.689 511.235 722.317 511.334 721.999 511.471C721.681 511.607 721.434 511.792 721.258 512.025C721.081 512.252 720.993 512.536 720.993 512.877C720.993 513.371 721.172 513.749 721.53 514.01C721.894 514.266 722.354 514.394 722.911 514.394ZM739.799 512.638L743.344 503.561H746.106L741 516.652H738.589L733.603 503.561H736.356L739.799 512.638ZM735.529 503.561V516.652H732.06V503.561H735.529ZM744.248 516.652V503.561H747.674V516.652H744.248ZM750.482 516.652V503.561H754.113V516.652H750.482ZM752.306 501.874C751.766 501.874 751.303 501.695 750.917 501.337C750.536 500.973 750.346 500.539 750.346 500.033C750.346 499.533 750.536 499.104 750.917 498.746C751.303 498.382 751.766 498.201 752.306 498.201C752.846 498.201 753.306 498.382 753.687 498.746C754.073 499.104 754.266 499.533 754.266 500.033C754.266 500.539 754.073 500.973 753.687 501.337C753.306 501.695 752.846 501.874 752.306 501.874ZM766.132 508.658V511.513H759.297V508.658H766.132ZM760.49 503.561V516.652H757.021V503.561H760.49ZM768.407 503.561V516.652H764.964V503.561H768.407ZM714.878 556.652V527.561H726.526C728.666 527.561 730.451 527.879 731.881 528.513C733.311 529.148 734.386 530.028 735.105 531.155C735.825 532.273 736.185 533.56 736.185 535.019C736.185 536.155 735.958 537.154 735.503 538.016C735.048 538.868 734.423 539.569 733.628 540.118C732.842 540.658 731.942 541.042 730.929 541.269V541.553C732.037 541.6 733.074 541.913 734.04 542.49C735.015 543.068 735.806 543.878 736.412 544.919C737.018 545.952 737.321 547.183 737.321 548.613C737.321 550.156 736.938 551.534 736.171 552.746C735.413 553.949 734.291 554.9 732.804 555.601C731.317 556.302 729.485 556.652 727.307 556.652H714.878ZM721.029 551.624H726.043C727.757 551.624 729.007 551.297 729.793 550.644C730.579 549.981 730.972 549.1 730.972 548.002C730.972 547.197 730.778 546.487 730.389 545.871C730.001 545.256 729.447 544.773 728.727 544.422C728.017 544.072 727.17 543.897 726.185 543.897H721.029V551.624ZM721.029 539.735H725.588C726.431 539.735 727.179 539.588 727.833 539.294C728.495 538.991 729.016 538.565 729.395 538.016C729.783 537.467 729.977 536.809 729.977 536.042C729.977 534.99 729.603 534.143 728.855 533.499C728.117 532.855 727.065 532.533 725.702 532.533H721.029V539.735Z" fill="white"/>
<path d="M178.921 454.445V436.991H185.91C187.194 436.991 188.265 437.181 189.123 437.562C189.981 437.942 190.626 438.471 191.058 439.147C191.489 439.817 191.705 440.59 191.705 441.465C191.705 442.147 191.569 442.746 191.296 443.263C191.024 443.775 190.649 444.195 190.171 444.525C189.7 444.849 189.16 445.079 188.552 445.215V445.386C189.217 445.414 189.839 445.602 190.418 445.948C191.004 446.295 191.478 446.781 191.842 447.406C192.205 448.025 192.387 448.763 192.387 449.621C192.387 450.548 192.157 451.374 191.697 452.102C191.242 452.823 190.569 453.394 189.677 453.815C188.785 454.235 187.686 454.445 186.379 454.445H178.921ZM182.612 451.428H185.62C186.649 451.428 187.399 451.232 187.87 450.84C188.342 450.442 188.578 449.914 188.578 449.255C188.578 448.772 188.461 448.346 188.228 447.977C187.995 447.607 187.663 447.317 187.231 447.107C186.805 446.897 186.296 446.792 185.705 446.792H182.612V451.428ZM182.612 444.295H185.347C185.853 444.295 186.302 444.207 186.694 444.031C187.092 443.849 187.404 443.593 187.632 443.263C187.864 442.934 187.981 442.539 187.981 442.079C187.981 441.448 187.757 440.94 187.308 440.553C186.864 440.167 186.234 439.974 185.416 439.974H182.612V444.295ZM194.72 454.445V441.354H198.351V454.445H194.72ZM196.544 439.667C196.004 439.667 195.541 439.488 195.155 439.13C194.774 438.766 194.584 438.332 194.584 437.826C194.584 437.326 194.774 436.897 195.155 436.539C195.541 436.175 196.004 435.994 196.544 435.994C197.084 435.994 197.544 436.175 197.925 436.539C198.311 436.897 198.504 437.326 198.504 437.826C198.504 438.332 198.311 438.766 197.925 439.13C197.544 439.488 197.084 439.667 196.544 439.667ZM200.578 444.21V441.354H212.441V444.21H208.222V454.445H204.762V444.21H200.578ZM217.906 454.692C217.071 454.692 216.327 454.548 215.673 454.258C215.02 453.962 214.503 453.528 214.122 452.954C213.747 452.374 213.56 451.653 213.56 450.789C213.56 450.062 213.693 449.451 213.96 448.957C214.227 448.462 214.591 448.065 215.051 447.763C215.512 447.462 216.034 447.235 216.619 447.082C217.21 446.928 217.83 446.82 218.477 446.758C219.239 446.678 219.852 446.604 220.318 446.536C220.784 446.462 221.122 446.354 221.333 446.212C221.543 446.07 221.648 445.86 221.648 445.582V445.531C221.648 444.991 221.477 444.573 221.137 444.278C220.801 443.982 220.324 443.835 219.705 443.835C219.051 443.835 218.531 443.979 218.145 444.269C217.759 444.553 217.503 444.911 217.378 445.343L214.02 445.07C214.19 444.275 214.526 443.587 215.026 443.008C215.526 442.423 216.171 441.974 216.96 441.661C217.756 441.343 218.676 441.184 219.722 441.184C220.449 441.184 221.145 441.269 221.81 441.44C222.48 441.61 223.074 441.874 223.591 442.232C224.114 442.59 224.526 443.05 224.827 443.613C225.128 444.17 225.279 444.837 225.279 445.616V454.445H221.835V452.63H221.733C221.523 453.039 221.242 453.4 220.889 453.712C220.537 454.019 220.114 454.261 219.619 454.437C219.125 454.607 218.554 454.692 217.906 454.692ZM218.946 452.187C219.48 452.187 219.952 452.082 220.361 451.871C220.77 451.656 221.091 451.366 221.324 451.002C221.557 450.638 221.673 450.227 221.673 449.766V448.377C221.56 448.451 221.404 448.519 221.205 448.582C221.012 448.638 220.793 448.692 220.548 448.744C220.304 448.789 220.06 448.832 219.815 448.871C219.571 448.906 219.35 448.937 219.151 448.965C218.725 449.028 218.352 449.127 218.034 449.263C217.716 449.4 217.469 449.585 217.293 449.817C217.117 450.045 217.029 450.329 217.029 450.67C217.029 451.164 217.208 451.542 217.565 451.803C217.929 452.059 218.389 452.187 218.946 452.187ZM235.834 450.431L239.379 441.354H242.141L237.036 454.445H234.624L229.638 441.354H232.391L235.834 450.431ZM231.564 441.354V454.445H228.095V441.354H231.564ZM240.283 454.445V441.354H243.709V454.445H240.283ZM246.517 454.445V441.354H250.148V454.445H246.517ZM248.341 439.667C247.801 439.667 247.338 439.488 246.952 439.13C246.571 438.766 246.381 438.332 246.381 437.826C246.381 437.326 246.571 436.897 246.952 436.539C247.338 436.175 247.801 435.994 248.341 435.994C248.881 435.994 249.341 436.175 249.722 436.539C250.108 436.897 250.301 437.326 250.301 437.826C250.301 438.332 250.108 438.766 249.722 439.13C249.341 439.488 248.881 439.667 248.341 439.667ZM262.167 446.451V449.306H255.332V446.451H262.167ZM256.525 441.354V454.445H253.056V441.354H256.525ZM264.443 441.354V454.445H260.999V441.354H264.443ZM219.898 494.445H209.585V465.354H219.983C222.909 465.354 225.428 465.937 227.54 467.102C229.651 468.257 231.275 469.919 232.412 472.087C233.558 474.256 234.13 476.851 234.13 479.871C234.13 482.902 233.558 485.506 232.412 487.684C231.275 489.862 229.642 491.533 227.511 492.698C225.39 493.863 222.852 494.445 219.898 494.445ZM215.736 489.175H219.642C221.46 489.175 222.989 488.853 224.23 488.21C225.48 487.556 226.417 486.548 227.042 485.184C227.677 483.811 227.994 482.04 227.994 479.871C227.994 477.722 227.677 475.965 227.042 474.602C226.417 473.238 225.485 472.234 224.244 471.59C223.004 470.946 221.474 470.624 219.656 470.624H215.736V489.175Z" fill="white"/>
<path d="M102.647 145.525H96.4256C96.3119 144.72 96.0799 144.006 95.7295 143.381C95.3792 142.746 94.9294 142.206 94.3801 141.761C93.8309 141.316 93.1964 140.975 92.4767 140.738C91.7665 140.502 90.9947 140.383 90.1614 140.383C88.6557 140.383 87.3441 140.757 86.2267 141.506C85.1093 142.244 84.2428 143.324 83.6273 144.744C83.0117 146.155 82.704 147.869 82.704 149.886C82.704 151.96 83.0117 153.702 83.6273 155.113C84.2523 156.524 85.1235 157.59 86.2409 158.309C87.3583 159.029 88.6509 159.389 90.1187 159.389C90.9426 159.389 91.7049 159.28 92.4057 159.062C93.1159 158.845 93.7456 158.527 94.2949 158.111C94.8441 157.684 95.2987 157.168 95.6585 156.562C96.0278 155.956 96.2835 155.265 96.4256 154.488L102.647 154.517C102.486 155.852 102.084 157.14 101.44 158.381C100.805 159.612 99.9483 160.715 98.8687 161.69C97.7987 162.656 96.5203 163.423 95.0335 163.991C93.5562 164.55 91.8848 164.829 90.0193 164.829C87.4246 164.829 85.1045 164.242 83.0591 163.068C81.0231 161.894 79.4133 160.194 78.2295 157.969C77.0553 155.743 76.4682 153.049 76.4682 149.886C76.4682 146.714 77.0648 144.015 78.258 141.79C79.4511 139.564 81.0705 137.869 83.1159 136.704C85.1614 135.53 87.4625 134.943 90.0193 134.943C91.7049 134.943 93.2674 135.18 94.7068 135.653C96.1557 136.127 97.4388 136.818 98.5562 137.727C99.6737 138.627 100.583 139.73 101.284 141.037C101.994 142.344 102.448 143.84 102.647 145.525ZM113.166 164.844C111.774 164.844 110.533 164.602 109.444 164.119C108.355 163.627 107.493 162.902 106.859 161.946C106.234 160.98 105.921 159.777 105.921 158.338C105.921 157.126 106.144 156.108 106.589 155.284C107.034 154.46 107.64 153.797 108.407 153.295C109.174 152.793 110.045 152.415 111.021 152.159C112.006 151.903 113.038 151.723 114.117 151.619C115.386 151.487 116.409 151.363 117.186 151.25C117.962 151.127 118.525 150.947 118.876 150.71C119.226 150.473 119.401 150.123 119.401 149.659V149.574C119.401 148.674 119.117 147.978 118.549 147.486C117.99 146.993 117.195 146.747 116.163 146.747C115.074 146.747 114.207 146.988 113.563 147.471C112.919 147.945 112.493 148.541 112.285 149.261L106.688 148.807C106.972 147.481 107.531 146.335 108.364 145.369C109.198 144.394 110.273 143.646 111.589 143.125C112.915 142.595 114.449 142.329 116.191 142.329C117.403 142.329 118.563 142.471 119.671 142.756C120.789 143.04 121.778 143.48 122.64 144.077C123.511 144.673 124.198 145.44 124.7 146.378C125.202 147.306 125.453 148.418 125.453 149.716V164.432H119.714V161.406H119.543C119.193 162.088 118.724 162.689 118.137 163.21C117.55 163.721 116.845 164.124 116.021 164.417C115.197 164.702 114.245 164.844 113.166 164.844ZM114.899 160.667C115.789 160.667 116.575 160.492 117.257 160.142C117.938 159.782 118.473 159.299 118.862 158.693C119.25 158.087 119.444 157.4 119.444 156.633V154.318C119.255 154.441 118.994 154.555 118.663 154.659C118.341 154.754 117.976 154.844 117.569 154.929C117.162 155.005 116.755 155.076 116.347 155.142C115.94 155.199 115.571 155.251 115.239 155.298C114.529 155.402 113.909 155.568 113.379 155.795C112.848 156.023 112.436 156.33 112.143 156.719C111.849 157.097 111.703 157.571 111.703 158.139C111.703 158.963 112.001 159.593 112.597 160.028C113.204 160.454 113.971 160.667 114.899 160.667Z" fill="white"/>
<line y1="-1" x2="176.032" y2="-1" transform="matrix(0.961847 -0.273589 0.26988 0.962894 649.379 163.545)" stroke="black" stroke-width="2"/>
<line y1="-1" x2="130.688" y2="-1" transform="matrix(0.602062 0.79845 -0.794156 0.607715 595.594 364.193)" stroke="black" stroke-width="2"/>
<line y1="-1" x2="85.354" y2="-1" transform="matrix(0.77014 -0.637875 0.63229 0.774732 274.902 402.609)" stroke="black" stroke-width="2"/>
<line y1="-1" x2="127.627" y2="-1" transform="matrix(0.998887 0.0471691 -0.0464806 0.998919 173.379 165.305)" stroke="black" stroke-width="2"/>
<defs>
<linearGradient id="paint0_linear_793_428" x1="393.543" y1="175.441" x2="328.089" y2="49.5283" gradientUnits="userSpaceOnUse">
<stop stop-color="#FECE6D"/>
<stop offset="0.9949" stop-color="#FFB550"/>
</linearGradient>
<linearGradient id="paint1_linear_793_428" x1="327.868" y1="87.2645" x2="358.554" y2="137.248" gradientUnits="userSpaceOnUse">
<stop stop-color="#7E7973"/>
<stop offset="1" stop-color="#9B9B9B"/>
</linearGradient>
<linearGradient id="paint2_linear_793_428" x1="376.904" y1="158.946" x2="341.135" y2="84.4485" gradientUnits="userSpaceOnUse">
<stop stop-color="#FECE6D"/>
<stop offset="0.9949" stop-color="#FFB550"/>
</linearGradient>
</defs>
</svg>
