<svg width="98" height="94" viewBox="0 0 98 94" fill="none" xmlns="http://www.w3.org/2000/svg">
<path d="M73.1867 0L24.4287 0C10.9584 0 0 10.9616 0 24.4359L0 69.0555C0 82.5297 10.9584 93.4914 24.4287 93.4914H73.1867C86.657 93.4914 97.6154 82.5297 97.6154 69.0555V24.4359C97.6154 10.9616 86.657 0 73.1867 0ZM8.61768 24.4359C8.61768 15.7163 15.7117 8.62014 24.4287 8.62014L73.1867 8.62014C81.9038 8.62014 88.9978 15.7163 88.9978 24.4359V69.0555C88.9978 77.7751 81.9038 84.8712 73.1867 84.8712H24.4287C15.7117 84.8712 8.61768 77.7751 8.61768 69.0555L8.61768 24.4359Z" fill="#383D38"/>
<path d="M48.8088 69.4687C61.3351 69.4687 71.5316 59.2747 71.5316 46.7392C71.5316 34.2038 61.3406 24.0098 48.8088 24.0098C36.277 24.0098 26.0859 34.2038 26.0859 46.7392C26.0859 59.2747 36.277 69.4687 48.8088 69.4687ZM48.8088 32.6354C56.5873 32.6354 62.9139 38.9639 62.9139 46.7448C62.9139 54.5256 56.5873 60.8541 48.8088 60.8541C41.0303 60.8541 34.7036 54.5256 34.7036 46.7448C34.7036 38.9639 41.0303 32.6354 48.8088 32.6354Z" fill="#383D38"/>
<path d="M73.6341 27.6819C77.0072 27.6819 79.7564 24.9374 79.7564 21.5578C79.7564 18.1782 77.0127 15.4336 73.6341 15.4336C70.2554 15.4336 67.5117 18.1782 67.5117 21.5578C67.5117 24.9374 70.2554 27.6819 73.6341 27.6819Z" fill="#383D38"/>
</svg>
